<svg width="32" height="32" viewBox="0 0 32 32" fill="none" xmlns="http://www.w3.org/2000/svg">
<path d="M16 20C18.2091 20 20 18.2091 20 16C20 13.7909 18.2091 12 16 12C13.7909 12 12 13.7909 12 16C12 18.2091 13.7909 20 16 20Z" stroke="white" stroke-width="2" stroke-linecap="round" stroke-linejoin="round"/>
<path d="M25.8666 20C25.6891 20.4021 25.6362 20.8482 25.7146 21.2808C25.793 21.7133 25.9992 22.1124 26.3066 22.4266L26.3866 22.5066C26.6345 22.7543 26.8312 23.0484 26.9654 23.3721C27.0996 23.6959 27.1687 24.0429 27.1687 24.3933C27.1687 24.7438 27.0996 25.0908 26.9654 25.4145C26.8312 25.7382 26.6345 26.0323 26.3866 26.28C26.1389 26.5279 25.8448 26.7246 25.5211 26.8588C25.1974 26.993 24.8504 27.0621 24.4999 27.0621C24.1495 27.0621 23.8025 26.993 23.4787 26.8588C23.155 26.7246 22.8609 26.5279 22.6132 26.28L22.5333 26.2C22.219 25.8926 21.8199 25.6864 21.3874 25.608C20.9548 25.5295 20.5087 25.5825 20.1066 25.76C19.7122 25.929 19.3759 26.2096 19.139 26.5674C18.9021 26.9251 18.775 27.3443 18.7733 27.7733V28C18.7733 28.7072 18.4923 29.3855 17.9922 29.8856C17.4921 30.3857 16.8138 30.6666 16.1066 30.6666C15.3993 30.6666 14.7211 30.3857 14.221 29.8856C13.7209 29.3855 13.4399 28.7072 13.4399 28V27.88C13.4296 27.4387 13.2867 27.0106 13.0299 26.6516C12.7731 26.2925 12.4142 26.019 11.9999 25.8666C11.5978 25.6892 11.1517 25.6362 10.7191 25.7146C10.2866 25.7931 9.88749 25.9993 9.57325 26.3066L9.49325 26.3866C9.24559 26.6346 8.95149 26.8313 8.62776 26.9655C8.30403 27.0997 7.95703 27.1687 7.60658 27.1687C7.25614 27.1687 6.90914 27.0997 6.58541 26.9655C6.26168 26.8313 5.96758 26.6346 5.71992 26.3866C5.47198 26.139 5.27529 25.8449 5.14109 25.5212C5.00689 25.1974 4.93782 24.8504 4.93782 24.5C4.93782 24.1495 5.00689 23.8025 5.14109 23.4788C5.27529 23.1551 5.47198 22.861 5.71992 22.6133L5.79992 22.5333C6.1073 22.2191 6.3135 21.82 6.39192 21.3874C6.47035 20.9549 6.41741 20.5088 6.23992 20.1066C6.0709 19.7123 5.79026 19.376 5.43254 19.1391C5.07482 18.9022 4.65563 18.775 4.22659 18.7733H3.99992C3.29267 18.7733 2.6144 18.4924 2.1143 17.9923C1.6142 17.4922 1.33325 16.8139 1.33325 16.1066C1.33325 15.3994 1.6142 14.7211 2.1143 14.221C2.6144 13.7209 3.29267 13.44 3.99992 13.44H4.11992C4.56124 13.4297 4.98926 13.2868 5.34832 13.03C5.70738 12.7732 5.98087 12.4143 6.13325 12C6.31074 11.5978 6.36368 11.1517 6.28526 10.7192C6.20683 10.2867 6.00063 9.88755 5.69325 9.57331L5.61325 9.49331C5.36531 9.24565 5.16862 8.95155 5.03443 8.62782C4.90023 8.30409 4.83115 7.95709 4.83115 7.60665C4.83115 7.2562 4.90023 6.9092 5.03443 6.58547C5.16862 6.26174 5.36531 5.96764 5.61325 5.71998C5.86091 5.47204 6.15502 5.27535 6.47874 5.14115C6.80247 5.00696 7.14948 4.93788 7.49992 4.93788C7.85036 4.93788 8.19736 5.00696 8.52109 5.14115C8.84482 5.27535 9.13892 5.47204 9.38658 5.71998L9.46658 5.79998C9.78082 6.10736 10.1799 6.31356 10.6125 6.39199C11.045 6.47041 11.4911 6.41747 11.8933 6.23998H11.9999C12.3943 6.07096 12.7306 5.79032 12.9675 5.4326C13.2044 5.07488 13.3315 4.65569 13.3333 4.22665V3.99998C13.3333 3.29274 13.6142 2.61446 14.1143 2.11436C14.6144 1.61426 15.2927 1.33331 15.9999 1.33331C16.7072 1.33331 17.3854 1.61426 17.8855 2.11436C18.3856 2.61446 18.6666 3.29274 18.6666 3.99998V4.11998C18.6683 4.54903 18.7954 4.96821 19.0323 5.32593C19.2692 5.68365 19.6056 5.9643 19.9999 6.13331C20.4021 6.3108 20.8482 6.36374 21.2807 6.28532C21.7132 6.20689 22.1123 6.0007 22.4266 5.69331L22.5066 5.61331C22.7542 5.36538 23.0483 5.16868 23.3721 5.03449C23.6958 4.90029 24.0428 4.83122 24.3933 4.83122C24.7437 4.83122 25.0907 4.90029 25.4144 5.03449C25.7382 5.16868 26.0323 5.36538 26.2799 5.61331C26.5279 5.86097 26.7245 6.15508 26.8587 6.47881C26.9929 6.80253 27.062 7.14954 27.062 7.49998C27.062 7.85042 26.9929 8.19743 26.8587 8.52115C26.7245 8.84488 26.5279 9.13898 26.2799 9.38665L26.1999 9.46665C25.8925 9.78088 25.6863 10.18 25.6079 10.6125C25.5295 11.0451 25.5824 11.4912 25.7599 11.8933V12C25.9289 12.3943 26.2096 12.7307 26.5673 12.9676C26.925 13.2045 27.3442 13.3316 27.7733 13.3333H27.9999C28.7072 13.3333 29.3854 13.6143 29.8855 14.1144C30.3856 14.6145 30.6666 15.2927 30.6666 16C30.6666 16.7072 30.3856 17.3855 29.8855 17.8856C29.3854 18.3857 28.7072 18.6666 27.9999 18.6666H27.8799C27.4509 18.6684 27.0317 18.7955 26.674 19.0324C26.3162 19.2693 26.0356 19.6056 25.8666 20V20Z" stroke="white" stroke-width="2" stroke-linecap="round" stroke-linejoin="round"/>
</svg>
