<svg width="74" height="28" viewBox="0 0 74 28" fill="none" xmlns="http://www.w3.org/2000/svg">
<g clip-path="url(#clip0_6_55)">
<path d="M28.8811 9.24046C28.0537 9.24046 27.4849 8.59303 27.4849 7.76439C27.4849 6.96157 28.0795 6.31414 28.9069 6.31414C29.76 6.31414 30.3033 6.96157 30.3033 7.76439C30.3033 8.67082 29.7086 9.24046 28.8811 9.24046ZM29.9672 25.8406H27.8206V11.7266H29.9672V25.8406ZM34.311 6.36577C35.4488 6.15857 36.9484 5.97735 38.7847 5.97735C45.1459 5.97735 45.663 10.0691 45.663 11.6229C45.663 16.2583 41.9653 17.916 38.4744 17.916C37.7246 17.916 37.0522 17.8902 36.4574 17.7348V25.8408H34.311V6.36577ZM36.4573 15.9479C37.0001 16.1031 37.6986 16.1551 38.5261 16.1551C41.6292 16.1551 43.5168 14.6016 43.5168 11.7784C43.5168 8.95564 41.4998 7.71259 38.8106 7.71259C37.7244 7.71259 36.9231 7.81619 36.4576 7.91979L36.4573 15.9479ZM58.2041 22.4741C58.2041 23.6394 58.2297 24.8564 58.4109 25.8406H56.4457L56.2389 24.0278H56.1613C55.4372 25.1414 53.9892 26.1514 51.998 26.1514C49.3088 26.1514 47.8866 24.183 47.8866 22.1373C47.8866 18.7444 50.8343 16.9058 56.0578 16.9318C56.0578 15.7405 56.0578 13.0472 52.8511 13.0472C51.6361 13.0472 50.3689 13.3838 49.412 14.0574L48.8949 12.5812C50.0325 11.8302 51.6099 11.3899 53.1872 11.3899C57.1694 11.3899 58.2037 14.2128 58.2037 17.0097L58.2041 22.4741ZM56.0838 18.5118C53.4202 18.5118 50.0846 18.9002 50.0846 21.8783C50.0846 23.6912 51.2224 24.4938 52.5153 24.4938C54.61 24.4938 56.084 22.8883 56.084 21.1789L56.0838 18.5118ZM73.7193 22.3445C73.7193 23.484 73.7711 24.8824 73.8226 25.8408H71.909L71.8056 23.4322H71.728C71.004 24.9082 69.4008 26.1516 67.1252 26.1516C63.8668 26.1516 61.333 23.3287 61.333 18.978C61.333 14.2128 64.1257 11.4161 67.4097 11.4161C69.4783 11.4161 70.8744 12.4261 71.5211 13.5915H71.5729V5.12289H73.7192L73.7193 22.3445ZM71.5729 17.3723C71.5729 14.5494 69.5817 13.1512 67.7718 13.1512C65.108 13.1512 63.5309 15.6371 63.5309 18.8744C63.5309 21.8525 64.9273 24.3906 67.6941 24.3906C70.0213 24.3906 71.5729 22.3448 71.5729 20.0916V17.3723ZM18.4333 14.6872C18.3968 11.3203 21.1754 9.69919 21.3005 9.62072C19.7336 7.33606 17.2998 7.0261 16.4328 6.98942C14.3606 6.78238 12.3922 8.2148 11.3419 8.21616C10.2921 8.21769 8.66794 7.03154 6.95087 7.06636C4.69202 7.10185 2.6132 8.3843 1.4515 10.4067C-0.887347 14.4812 0.865895 20.5082 3.15566 23.807C4.27506 25.4196 5.60898 27.2353 7.35899 27.1671C9.04396 27.0993 9.6795 26.0752 11.7147 26.0726C13.7507 26.0699 14.3254 27.1581 16.1067 27.1219C17.9197 27.0874 19.0661 25.4719 20.173 23.8501C21.4537 21.9736 21.9787 20.1578 22.0101 20.0643C21.9711 20.0463 18.4744 18.7113 18.4333 14.6872ZM15.0887 4.81226C16.0182 3.68708 16.643 2.12338 16.4722 0.564941C15.1347 0.61929 13.5146 1.45659 12.554 2.58041C11.6936 3.57618 10.9399 5.16773 11.1435 6.69509C12.6345 6.81058 14.1592 5.93625 15.0887 4.81226Z" fill="#8C87A2"/>
</g>
<defs>
<clipPath id="clip0_6_55">
<rect width="73.4917" height="26.604" fill="white" transform="translate(0.337891 0.564941)"/>
</clipPath>
</defs>
</svg>
