<svg width="177" height="28" viewBox="0 0 177 28" fill="none" xmlns="http://www.w3.org/2000/svg">
<path d="M9.27236 8.59756C11.7867 8.59756 13.8753 9.8953 14.8689 11.2944V8.94227H18.7013V26.401H15.9436C15.7996 26.4016 15.657 26.3737 15.5238 26.3188C15.3907 26.264 15.2698 26.1834 15.168 26.0816C15.0662 25.9798 14.9856 25.8589 14.9307 25.7257C14.8759 25.5926 14.848 25.45 14.8486 25.306V24.0488C13.8753 25.4682 11.7867 26.766 9.27236 26.766C4.48692 26.766 0.857296 22.67 0.857296 17.6818C0.857296 12.6936 4.46665 8.59756 9.27236 8.59756ZM9.94151 12.0852C6.83909 12.0852 4.73025 14.5388 4.73025 17.6818C4.73025 20.8247 6.81881 23.2783 9.94151 23.2783C13.0439 23.2783 15.1528 20.8247 15.1528 17.6818C15.1528 14.5388 13.0845 12.0852 9.94151 12.0852V12.0852ZM23.0609 8.94227H26.9136V11.3147C27.968 9.57087 29.9552 8.59756 32.2262 8.59756C36.2817 8.59756 38.8974 11.4566 38.8974 15.8974V26.401H36.1397C35.9958 26.4016 35.8531 26.3737 35.72 26.3188C35.5869 26.264 35.4659 26.1834 35.3641 26.0816C35.2623 25.9798 35.1817 25.8589 35.1269 25.7257C35.0721 25.5926 35.0442 25.45 35.0448 25.306V16.526C35.0448 13.7683 33.6456 12.0852 31.4151 12.0852C28.8602 12.0852 26.9136 14.0724 26.9136 17.8034V26.401H24.1559C24.0119 26.4016 23.8693 26.3737 23.7361 26.3188C23.603 26.264 23.4821 26.1834 23.3803 26.0816C23.2785 25.9798 23.1979 25.8589 23.143 25.7257C23.0882 25.5926 23.0603 25.45 23.0609 25.306V8.94227ZM50.3541 8.59756C52.8685 8.59756 54.957 9.8953 55.9506 11.2944V0.22305H59.783V26.4213H57.0253C56.8813 26.4219 56.7387 26.3939 56.6056 26.3391C56.4725 26.2843 56.3515 26.2037 56.2497 26.1019C56.1479 26.0001 56.0673 25.8791 56.0125 25.746C55.9577 25.6129 55.9297 25.4703 55.9303 25.3263V24.0691C54.957 25.4682 52.8482 26.766 50.3338 26.766C45.5484 26.766 41.9187 22.67 41.9187 17.6818C41.939 12.6936 45.5686 8.59756 50.3541 8.59756V8.59756ZM51.0435 12.0852C47.9411 12.0852 45.8323 14.5388 45.8323 17.6818C45.8323 20.8247 47.9208 23.2783 51.0435 23.2783C54.1459 23.2783 56.2548 20.8247 56.2548 17.6818C56.2548 14.5388 54.1459 12.0852 51.0435 12.0852V12.0852ZM64.1426 8.94227H67.975V12.0447C68.3112 11.0902 68.9336 10.2626 69.7573 9.67474C70.581 9.08688 71.566 8.76737 72.578 8.75977C73.0815 8.75861 73.584 8.80614 74.0785 8.90172V12.8558C73.4576 12.6464 72.8074 12.5369 72.1521 12.5313C69.9419 12.5313 67.9547 14.3766 67.9547 17.8845V26.401H65.197C65.0531 26.4016 64.9104 26.3737 64.7773 26.3188C64.6442 26.264 64.5232 26.1834 64.4214 26.0816C64.3197 25.9798 64.239 25.8589 64.1842 25.7257C64.1294 25.5926 64.1015 25.45 64.1021 25.306V8.94227H64.1426ZM84.4604 26.766C79.2897 26.766 75.3154 22.7511 75.3154 17.6818C75.3154 12.6125 79.2897 8.59756 84.4604 8.59756C89.6311 8.59756 93.6055 12.6125 93.6055 17.6818C93.6055 22.7511 89.6311 26.766 84.4604 26.766ZM84.4604 23.1972C87.5426 23.1972 89.692 20.7842 89.692 17.6818C89.692 14.5793 87.5223 12.1664 84.4604 12.1664C81.358 12.1664 79.1883 14.5793 79.1883 17.6818C79.1883 20.7842 81.358 23.1972 84.4604 23.1972ZM98.6342 5.13015C97.9539 5.13015 97.3015 4.8599 96.8204 4.37885C96.3394 3.89781 96.0692 3.24537 96.0692 2.56507C96.0692 1.88477 96.3394 1.23234 96.8204 0.751292C97.3015 0.270248 97.9539 0 98.6342 0C99.3145 0 99.967 0.270248 100.448 0.751292C100.929 1.23234 101.199 1.88477 101.199 2.56507C101.199 3.24537 100.929 3.89781 100.448 4.37885C99.967 4.8599 99.3145 5.13015 98.6342 5.13015V5.13015ZM96.7282 8.94227H100.561V26.401H97.8029C97.6589 26.4016 97.5162 26.3737 97.3831 26.3188C97.25 26.264 97.1291 26.1834 97.0273 26.0816C96.9255 25.9798 96.8449 25.8589 96.79 25.7257C96.7352 25.5926 96.7073 25.45 96.7079 25.306C96.7282 25.306 96.7282 8.94227 96.7282 8.94227V8.94227ZM112.139 8.59756C114.653 8.59756 116.742 9.8953 117.735 11.2944V0.22305H121.568V26.4213H118.81C118.666 26.4219 118.523 26.3939 118.39 26.3391C118.257 26.2843 118.136 26.2037 118.035 26.1019C117.933 26.0001 117.852 25.8791 117.797 25.746C117.742 25.6129 117.715 25.4703 117.715 25.3263V24.0691C116.742 25.4682 114.633 26.766 112.119 26.766C107.333 26.766 103.704 22.67 103.704 17.6818C103.724 12.6936 107.353 8.59756 112.139 8.59756ZM112.849 12.0852C109.746 12.0852 107.637 14.5388 107.637 17.6818C107.637 20.8247 109.726 23.2783 112.849 23.2783C115.951 23.2783 118.06 20.8247 118.06 17.6818C118.06 14.5388 115.951 12.0852 112.849 12.0852" fill="#8C87A2"/>
<path d="M163.968 20.6141C163.583 20.6141 163.206 20.5 162.886 20.2861C162.566 20.0722 162.317 19.7682 162.169 19.4125C162.022 19.0568 161.983 18.6654 162.058 18.2878C162.134 17.9101 162.319 17.5633 162.591 17.2911C162.863 17.0188 163.21 16.8334 163.588 16.7583C163.965 16.6832 164.357 16.7217 164.713 16.8691C165.068 17.0164 165.372 17.2659 165.586 17.586C165.8 17.9062 165.914 18.2825 165.914 18.6675C165.914 19.1838 165.709 19.6788 165.344 20.0439C164.979 20.4089 164.484 20.614 163.968 20.6141V20.6141ZM142.535 20.6141C142.15 20.6141 141.773 20.5 141.453 20.2861C141.133 20.0722 140.883 19.7682 140.736 19.4125C140.589 19.0568 140.55 18.6654 140.625 18.2878C140.7 17.9101 140.886 17.5633 141.158 17.2911C141.43 17.0188 141.777 16.8334 142.155 16.7583C142.532 16.6832 142.924 16.7217 143.279 16.8691C143.635 17.0164 143.939 17.2659 144.153 17.586C144.367 17.9062 144.481 18.2825 144.481 18.6675C144.481 19.1838 144.276 19.6788 143.911 20.0439C143.546 20.4089 143.051 20.614 142.535 20.6141V20.6141ZM164.657 8.93444L168.55 2.22266C168.603 2.13076 168.637 2.02939 168.65 1.92436C168.663 1.81934 168.656 1.71273 168.627 1.61067C168.599 1.5086 168.551 1.4131 168.486 1.32963C168.421 1.24616 168.34 1.17638 168.248 1.12429C168.156 1.0722 168.054 1.03884 167.949 1.02611C167.844 1.01338 167.738 1.02154 167.636 1.05012C167.534 1.0787 167.439 1.12713 167.355 1.19264C167.272 1.25815 167.203 1.33944 167.151 1.43185L163.217 8.22473C160.093 6.79701 156.696 6.0637 153.261 6.07534C149.822 6.06692 146.421 6.7928 143.285 8.20446L139.331 1.41157C139.279 1.31917 139.21 1.23787 139.127 1.17236C139.043 1.10685 138.948 1.05842 138.846 1.02984C138.744 1.00126 138.638 0.993102 138.533 1.00583C138.427 1.01856 138.326 1.05193 138.234 1.10401C138.142 1.1561 138.061 1.22588 137.996 1.30935C137.93 1.39282 137.883 1.48833 137.854 1.59039C137.826 1.69245 137.819 1.79906 137.832 1.90408C137.845 2.00911 137.879 2.11048 137.932 2.20239L141.805 8.91416C138.456 10.7405 135.615 13.3732 133.541 16.5739C131.466 19.7746 130.222 23.4423 129.922 27.2448H176.499C176.208 23.4475 174.972 19.7833 172.904 16.5854C170.836 13.3875 168.001 10.7574 164.657 8.93444Z" fill="#8C87A2"/>
</svg>
