<svg width="57" height="28" viewBox="0 0 57 28" fill="none" xmlns="http://www.w3.org/2000/svg">
<g clip-path="url(#clip0_5_43)">
<path d="M32.5084 2.94647V7.29356H37.9897V8.85177H32.5084V21.6863C32.5084 22.9989 32.721 24.003 33.1476 24.7002C33.5735 25.3974 34.3078 25.7456 35.353 25.7456C35.8476 25.7456 36.2734 25.7186 36.6306 25.6637C36.9878 25.6097 37.2898 25.5405 37.5375 25.4586L37.7436 26.9349C37.0844 27.2354 36.2047 27.3865 35.1061 27.3865C34.1992 27.3865 33.4505 27.2354 32.86 26.9349C32.2687 26.6344 31.8021 26.2178 31.4585 25.6844C31.1149 25.1509 30.8744 24.5094 30.737 23.7573C30.5987 23.006 30.5308 22.1927 30.5308 21.3174V8.85177H27.2748V7.29356H30.5308V3.68424L32.5084 2.94647ZM41.1635 7.29276L45.6972 19.5128C46.0815 20.47 46.4251 21.3723 46.7271 22.219C47.0292 23.0664 47.3176 23.9004 47.5925 24.7201H47.6748C47.9488 23.9274 48.2445 23.0998 48.5609 22.2388C48.8765 21.3779 49.2273 20.4692 49.6116 19.512L54.186 7.29197H56.2467L48.3747 26.9747H46.6848L39.1028 7.29276H41.1635Z" fill="#8C87A2"/>
<path d="M12.027 3.09752C13.784 0.793601 16.2267 0.782471 16.2267 0.782471C16.2267 0.782471 16.5902 2.94886 14.8443 5.03495C12.981 7.26334 10.8628 6.89843 10.8628 6.89843C10.8628 6.89843 10.4649 5.14625 12.027 3.09752ZM11.0857 8.4161C11.9894 8.4161 13.6666 7.17986 15.8503 7.17986C19.609 7.17986 21.0872 9.84074 21.0872 9.84074C21.0872 9.84074 18.1955 11.3115 18.1955 14.8811C18.1955 18.9078 21.7975 20.295 21.7975 20.295C21.7975 20.295 19.2798 27.3467 15.8783 27.3467C14.3162 27.3467 13.1017 26.2989 11.4557 26.2989C9.77851 26.2989 8.11333 27.3857 7.02985 27.3857C3.92403 27.3865 0 20.6965 0 15.3199C0 10.0292 3.32156 7.2538 6.43617 7.2538C8.46171 7.2538 10.0334 8.4161 11.0857 8.4161Z" fill="#8C87A2"/>
</g>
<defs>
<clipPath id="clip0_5_43">
<rect width="56.3379" height="26.604" fill="white" transform="translate(0 0.782471)"/>
</clipPath>
</defs>
</svg>
