<svg width="156" height="29" viewBox="0 0 156 29" fill="none" xmlns="http://www.w3.org/2000/svg">
<path d="M141.078 5.25656H137.094V26.4501H133.177V5.25656H129.192V2.00818H141.078V5.25656ZM141.949 2.00818H146.133L147.439 12.9897C147.808 16.1381 148.143 18.8487 148.544 22.5665H148.712C149.079 18.8499 149.449 16.2039 149.817 12.9897L151.156 2.00818H155.307L151.29 26.416H146.001L141.949 2.00818Z" fill="#8C87A2"/>
<path d="M40.2996 4.45309C39.8314 2.67767 38.4571 1.33884 36.7171 0.836456C33.5358 0 20.8131 0 20.8131 0C20.8131 0 8.08908 0 4.90903 0.836456C4.04649 1.0708 3.26105 1.52859 2.63204 2.1636C2.00303 2.79861 1.55271 3.58836 1.32657 4.45309C0.490112 7.63314 0.490112 14.2286 0.490112 14.2286C0.490112 14.2286 0.490112 20.8595 1.32657 24.0054C1.82895 25.7808 3.16778 27.1526 4.9432 27.622C8.09035 28.4585 20.8118 28.4585 20.8118 28.4585C20.8118 28.4585 33.5358 28.4585 36.7171 27.622C37.5764 27.385 38.3602 26.931 38.9934 26.3037C39.6265 25.6763 40.0877 24.8966 40.3325 24.0396C41.169 20.8583 41.169 14.2628 41.169 14.2628C41.169 14.2628 41.1361 7.63314 40.2996 4.45309Z" fill="#8C87A2"/>
<path d="M16.7612 20.323L27.3415 14.2286L16.7624 8.1355L16.7612 20.323Z" fill="#0A071B"/>
<path d="M59.5166 25.9136C58.648 25.3105 58.0385 24.4024 57.8095 23.3701C57.4424 21.8807 57.2735 20.3493 57.3071 18.8158V16.238C57.2742 14.6638 57.4754 13.1251 57.9107 11.6179C58.2033 10.5875 58.8414 9.68902 59.7178 9.07313C60.7042 8.50692 61.8295 8.22854 62.9661 8.26958C64.2721 8.26958 65.3426 8.53658 66.1462 9.07313C66.9839 9.70965 67.6204 10.579 67.8874 11.6167C68.3005 13.1208 68.4814 14.6793 68.424 16.238V18.8158C68.4627 20.3625 68.2821 21.9069 67.8874 23.403C67.6237 24.429 67.0072 25.3294 66.1462 25.9465C65.3426 26.4831 64.2379 26.7513 62.8649 26.7513C61.4603 26.7172 60.3214 26.4502 59.5178 25.9136H59.5166ZM64.038 23.1018C64.2721 22.5323 64.3721 21.5618 64.3721 20.2546V14.7309C64.4119 13.7818 64.2991 12.8325 64.038 11.9191C63.9696 11.66 63.8175 11.4308 63.6053 11.2672C63.3932 11.1036 63.1329 11.0147 62.8649 11.0143C62.6011 11.0157 62.3455 11.1056 62.1389 11.2697C61.9324 11.4338 61.787 11.6625 61.726 11.9191C61.4649 12.8325 61.3521 13.7818 61.3919 14.7309V20.2887C61.3919 21.5947 61.4932 22.5665 61.7273 23.136C61.7877 23.3964 61.9387 23.6268 62.1534 23.7861C62.368 23.9453 62.6324 24.023 62.8991 24.0053C63.1627 24.004 63.4182 23.9143 63.6247 23.7504C63.8312 23.5866 63.9768 23.3582 64.038 23.1018ZM121.324 18.8499V19.7534C121.324 20.6241 121.357 21.4618 121.426 22.3311C121.459 22.7665 121.591 23.2018 121.86 23.5713C122.128 23.837 122.496 24.0053 122.865 23.9724C123.367 24.0053 123.869 23.7383 124.103 23.2688C124.337 22.8006 124.437 22.03 124.47 20.9252L127.92 21.1593C127.954 21.3605 127.954 21.5947 127.954 21.7959C127.954 23.4359 127.519 24.6747 126.614 25.4783C125.71 26.2818 124.437 26.6843 122.797 26.6843C120.822 26.6843 119.449 26.0477 118.647 24.8089C117.842 23.57 117.441 21.6617 117.441 19.0511V15.9369C117.441 13.2579 117.842 11.3168 118.68 10.0779C119.516 8.83776 120.922 8.23541 122.897 8.23541C124.27 8.23541 125.342 8.50368 126.079 9.00606C126.857 9.58293 127.413 10.4107 127.652 11.3497C127.987 12.7897 128.154 14.2956 128.087 15.7686V18.8158L121.324 18.8499ZM121.827 11.3497C121.591 11.7179 121.424 12.1532 121.424 12.5885C121.357 13.4591 121.323 14.3298 121.323 15.2004V16.4722H124.27V15.2004C124.27 14.3298 124.238 13.4591 124.136 12.5885C124.109 12.1432 123.958 11.7143 123.701 11.3497C123.584 11.2199 123.439 11.1191 123.276 11.0551C123.114 10.9912 122.938 10.966 122.765 10.9814C122.59 10.9627 122.414 10.9864 122.251 11.0505C122.087 11.1146 121.942 11.2173 121.827 11.3497ZM49.741 18.5146L45.1867 2.00818H49.1716L50.7787 9.47427C51.1811 11.3168 51.4823 12.8897 51.6822 14.1944H51.8164C51.9505 13.2579 52.2517 11.7179 52.7211 9.50844L54.3953 2.00818H58.3789L53.7588 18.5146V26.4489H49.7727V18.5146H49.741ZM81.3808 8.60365V26.4501H78.2324L77.8971 24.2736H77.7958C76.9607 25.9136 75.6547 26.7513 73.9464 26.7513C72.7746 26.7513 71.904 26.3489 71.3345 25.5795C70.7651 24.8089 70.4981 23.6042 70.4981 21.93V8.60492H74.5158V21.6959C74.4817 22.2653 74.5829 22.8677 74.7841 23.403C74.8606 23.5655 74.9851 23.7008 75.1407 23.7906C75.2963 23.8804 75.4757 23.9204 75.6547 23.9054C76.0217 23.9054 76.357 23.7712 76.6582 23.57C76.9594 23.3701 77.2277 23.1018 77.3618 22.7665V8.60365H81.3808ZM101.972 8.60365V26.4501H98.8249L98.4896 24.2736H98.3884C97.5532 25.9136 96.246 26.7513 94.5389 26.7513C93.3671 26.7513 92.4965 26.3489 91.927 25.5795C91.3576 24.8089 91.0906 23.6042 91.0906 21.93V8.60492H95.1083V21.6959C95.0742 22.2653 95.1754 22.8677 95.3753 23.403C95.4519 23.5655 95.5763 23.7008 95.7319 23.7906C95.8876 23.8804 96.0669 23.9204 96.246 23.9054C96.6142 23.9054 96.9495 23.7712 97.2507 23.57C97.5519 23.3701 97.8202 23.1018 97.9543 22.7665V8.60365H101.972Z" fill="#8C87A2"/>
<path d="M92.2954 5.25665H88.3118V26.4502H84.3939V5.25665H80.4103V2.00826H92.2954V5.25665ZM115.263 11.4497C115.03 10.345 114.628 9.50853 114.093 9.00615C113.467 8.4779 112.667 8.20296 111.849 8.23549C111.112 8.23549 110.409 8.43796 109.774 8.87201C109.137 9.27442 108.635 9.8426 108.299 10.5133H108.266V1.10474H104.414V26.4502H107.73L108.131 24.7761H108.232C108.533 25.3784 109.035 25.8808 109.637 26.2149C110.275 26.5603 110.988 26.7445 111.714 26.7514C112.344 26.7662 112.965 26.5966 113.5 26.2634C114.035 25.9303 114.462 25.4481 114.727 24.876C115.363 23.6372 115.698 21.6618 115.698 19.017V16.204C115.674 14.6105 115.529 13.0211 115.263 11.4497ZM111.581 18.7159C111.581 19.7206 111.548 20.7583 111.414 21.763C111.381 22.3325 111.18 22.8678 110.878 23.336C110.758 23.4857 110.605 23.6058 110.43 23.687C110.256 23.7682 110.066 23.8083 109.874 23.8042C109.538 23.8042 109.237 23.7384 108.97 23.5701C108.703 23.4018 108.468 23.169 108.299 22.8678V12.7569C108.434 12.2874 108.668 11.885 109.003 11.5509C109.271 11.2498 109.674 11.0827 110.075 11.0827C110.442 11.0827 110.811 11.2498 111.011 11.5509C111.28 12.0533 111.448 12.5886 111.481 13.1581C111.582 14.2286 111.615 15.3004 111.615 16.3723L111.581 18.7159Z" fill="#8C87A2"/>
</svg>
