<svg width="186" height="25" viewBox="0 0 186 25" fill="none" xmlns="http://www.w3.org/2000/svg">
<path d="M5.124 15.624C5.72133 16.2027 6.384 16.6413 7.112 16.94C7.84 17.2387 8.596 17.4533 9.38 17.584C10.164 17.696 10.9667 17.7613 11.788 17.78C12.6093 17.78 13.4027 17.78 14.168 17.78C14.448 17.78 14.8213 17.7707 15.288 17.752C15.7733 17.7333 16.2867 17.696 16.828 17.64C17.388 17.5653 17.948 17.472 18.508 17.36C19.068 17.2293 19.572 17.0613 20.02 16.856C20.4867 16.6507 20.86 16.408 21.14 16.128C21.4387 15.8293 21.588 15.4747 21.588 15.064C21.588 14.6533 21.4293 14.2987 21.112 14C20.8133 13.6827 20.4213 13.412 19.936 13.188C19.4507 12.964 18.9 12.7773 18.284 12.628C17.6867 12.46 17.0893 12.3387 16.492 12.264C15.8947 12.1707 15.3347 12.1053 14.812 12.068C14.308 12.0307 13.8973 12.012 13.58 12.012H13.608C13.16 11.9933 12.6093 11.9467 11.956 11.872C11.3027 11.7973 10.6213 11.6853 9.912 11.536C9.20267 11.3867 8.49333 11.2 7.784 10.976C7.07467 10.7333 6.44 10.444 5.88 10.108C5.32 9.772 4.86267 9.38 4.508 8.932C4.15333 8.46533 3.976 7.93333 3.976 7.336C3.976 6.68267 4.144 6.12267 4.48 5.656C4.83467 5.18933 5.28267 4.79733 5.824 4.48C6.384 4.144 7.00933 3.88267 7.7 3.696C8.39067 3.49067 9.09067 3.332 9.8 3.22C10.5093 3.108 11.1813 3.03333 11.816 2.996C12.4693 2.95867 13.02 2.94 13.468 2.94C14.196 2.94 14.9333 2.97733 15.68 3.052C16.4453 3.108 17.192 3.22 17.92 3.388C18.648 3.556 19.3573 3.78933 20.048 4.088C20.7387 4.368 21.3733 4.732 21.952 5.18L20.468 6.244C19.9267 5.87067 19.3573 5.58133 18.76 5.376C18.1627 5.152 17.5467 4.984 16.912 4.872C16.2773 4.76 15.6333 4.69467 14.98 4.676C14.3267 4.63867 13.692 4.62 13.076 4.62C12.6467 4.62 12.0587 4.648 11.312 4.704C10.584 4.76 9.856 4.88133 9.128 5.068C8.41867 5.236 7.80267 5.50667 7.28 5.88C6.75733 6.23467 6.496 6.72 6.496 7.336C6.496 7.93333 6.748 8.41867 7.252 8.792C7.756 9.14667 8.41867 9.436 9.24 9.66C10.0613 9.86533 10.9947 10.0333 12.04 10.164C13.104 10.276 14.1867 10.3973 15.288 10.528C16.3893 10.6587 17.4627 10.8173 18.508 11.004C19.572 11.172 20.5147 11.424 21.336 11.76C22.1573 12.0773 22.82 12.5067 23.324 13.048C23.828 13.5707 24.08 14.2427 24.08 15.064C24.08 15.6427 23.9027 16.156 23.548 16.604C23.212 17.052 22.764 17.444 22.204 17.78C21.644 18.0973 21.0093 18.368 20.3 18.592C19.6093 18.7973 18.9093 18.9653 18.2 19.096C17.5093 19.2267 16.8467 19.32 16.212 19.376C15.5773 19.432 15.0547 19.46 14.644 19.46H12.544C11.7787 19.46 10.976 19.432 10.136 19.376C9.296 19.32 8.47467 19.1987 7.672 19.012C6.86933 18.8067 6.104 18.5267 5.376 18.172C4.648 17.8173 4.004 17.332 3.444 16.716L5.124 15.624ZM1.12 16.128C1.86667 17.3413 2.75333 18.284 3.78 18.956C4.80667 19.6093 5.91733 20.0947 7.112 20.412C8.30667 20.7107 9.53867 20.888 10.808 20.944C12.096 21 13.3747 21.028 14.644 21.028C15.204 21.028 15.8667 20.9907 16.632 20.916C17.3973 20.8227 18.1907 20.6827 19.012 20.496C19.8333 20.3093 20.636 20.0667 21.42 19.768C22.2227 19.4507 22.932 19.0773 23.548 18.648C24.1827 18.2 24.6867 17.6867 25.06 17.108C25.452 16.5107 25.648 15.8293 25.648 15.064C25.648 14.1493 25.4427 13.3747 25.032 12.74C24.64 12.0867 24.1173 11.5453 23.464 11.116C22.8293 10.668 22.092 10.3133 21.252 10.052C20.4307 9.772 19.5813 9.55733 18.704 9.408C17.8267 9.25867 16.968 9.14667 16.128 9.072C15.288 8.99733 14.5413 8.932 13.888 8.876C13.664 8.85733 13.2347 8.82 12.6 8.764C11.9653 8.68933 11.312 8.596 10.64 8.484C9.968 8.35333 9.37067 8.19467 8.848 8.008C8.32533 7.82133 8.064 7.59733 8.064 7.336C8.064 7.03733 8.30667 6.81333 8.792 6.664C9.27733 6.51467 9.828 6.40267 10.444 6.328C11.0787 6.25333 11.6853 6.216 12.264 6.216C12.8613 6.19733 13.2627 6.188 13.468 6.188C14.0653 6.188 14.672 6.216 15.288 6.272C15.904 6.30933 16.5013 6.40267 17.08 6.552C17.6773 6.70133 18.2373 6.916 18.76 7.196C19.3013 7.476 19.796 7.84 20.244 8.288L24.332 5.544C23.6227 4.57333 22.82 3.81733 21.924 3.276C21.028 2.716 20.076 2.296 19.068 2.016C18.06 1.736 17.0053 1.55867 15.904 1.484C14.8213 1.40933 13.7293 1.372 12.628 1.372C12.0493 1.372 11.3867 1.41867 10.64 1.512C9.912 1.58667 9.16533 1.71733 8.4 1.904C7.65333 2.09067 6.916 2.33333 6.188 2.632C5.47867 2.93067 4.844 3.304 4.284 3.752C3.724 4.2 3.276 4.72267 2.94 5.32C2.604 5.89867 2.436 6.57067 2.436 7.336C2.436 8.21333 2.65067 8.96933 3.08 9.604C3.50933 10.2387 4.07867 10.78 4.788 11.228C5.49733 11.676 6.3 12.04 7.196 12.32C8.092 12.6 8.99733 12.8333 9.912 13.02C10.8453 13.188 11.7413 13.328 12.6 13.44C13.4773 13.5333 14.2427 13.6173 14.896 13.692C15.0827 13.7107 15.4467 13.748 15.988 13.804C16.548 13.86 17.1267 13.944 17.724 14.056C18.3213 14.1493 18.8533 14.28 19.32 14.448C19.7867 14.616 20.02 14.8213 20.02 15.064C20.02 15.2693 19.8707 15.4467 19.572 15.596C19.2733 15.7267 18.8907 15.8387 18.424 15.932C17.9573 16.0067 17.444 16.0627 16.884 16.1C16.324 16.1373 15.7733 16.1653 15.232 16.184C14.7093 16.2027 14.2333 16.212 13.804 16.212C13.3933 16.212 13.104 16.212 12.936 16.212C12.2267 16.212 11.5267 16.184 10.836 16.128C10.1453 16.0533 9.47333 15.9227 8.82 15.736C8.16667 15.5307 7.55067 15.2507 6.972 14.896C6.39333 14.5413 5.87067 14.0653 5.404 13.468L1.12 16.128ZM5.18 12.768L3.836 11.396C3.18267 10.9107 2.66933 10.3413 2.296 9.688C1.92267 9.016 1.736 8.232 1.736 7.336C1.736 6.47733 1.91333 5.72133 2.268 5.068C2.64133 4.396 3.12667 3.81733 3.724 3.332C4.32133 2.84667 5.00267 2.436 5.768 2.1C6.53333 1.74533 7.31733 1.46533 8.12 1.26C8.92267 1.05467 9.716 0.905333 10.5 0.812C11.284 0.718666 11.9933 0.672 12.628 0.672C13.7293 0.672 14.84 0.709333 15.96 0.783998C17.08 0.839999 18.172 1.008 19.236 1.288C20.3187 1.568 21.3547 1.99733 22.344 2.576C23.3333 3.15467 24.2573 3.96667 25.116 5.012C25.6947 5.59067 26.152 6.076 26.488 6.468C26.824 6.84133 27.0853 7.15867 27.272 7.42C27.4773 7.68133 27.6267 7.896 27.72 8.064C27.8133 8.21333 27.9067 8.35333 28 8.484L24.416 10.892C24.5093 10.9853 24.612 11.0693 24.724 11.144C24.8547 11.2 25.032 11.3213 25.256 11.508C25.48 11.6947 25.7693 11.9653 26.124 12.32C26.4973 12.656 26.992 13.1413 27.608 13.776C28.056 14.2427 28.4107 14.84 28.672 15.568C28.9333 16.296 29.064 17.0613 29.064 17.864C29.064 18.704 28.8587 19.4507 28.448 20.104C28.0373 20.7573 27.5053 21.3267 26.852 21.812C26.1987 22.2973 25.452 22.708 24.612 23.044C23.772 23.38 22.9227 23.6507 22.064 23.856C21.2053 24.0613 20.3653 24.2107 19.544 24.304C18.7413 24.3973 18.0413 24.444 17.444 24.444C16.3427 24.444 15.2227 24.444 14.084 24.444C12.9453 24.444 11.8253 24.3507 10.724 24.164C9.64133 23.9773 8.58667 23.6693 7.56 23.24C6.53333 22.8107 5.59067 22.1573 4.732 21.28C4.004 20.608 3.388 20.02 2.884 19.516C2.39867 18.9933 1.97867 18.5267 1.624 18.116C1.288 17.6867 0.998667 17.2947 0.756 16.94C0.532 16.5853 0.317333 16.24 0.112 15.904L5.18 12.768ZM41.3199 4.648H31.9399V2.94H52.4079V4.648H42.9999V19.46H41.3199V4.648ZM44.5399 6.216H53.9479V1.372H30.3999V6.216H39.7799V21.028H44.5399V6.216ZM29.6999 6.916V0.672H54.6479L57.3639 3.556V9.632H47.9559V24.444H41.9639L39.0799 21.728V9.632H32.5839L29.6999 6.916ZM76.1768 6.216C76.4008 6.216 76.6342 6.23467 76.8768 6.272C77.1195 6.30933 77.3435 6.37467 77.5488 6.468C77.7542 6.56133 77.9222 6.692 78.0528 6.86C78.2022 7.028 78.2768 7.252 78.2768 7.532C78.2768 7.79333 78.2022 8.008 78.0528 8.176C77.9035 8.344 77.7168 8.47467 77.4928 8.568C77.2875 8.66133 77.0542 8.72667 76.7928 8.764C76.5502 8.80133 76.3355 8.82 76.1488 8.82H65.7888V6.216H76.1768ZM76.1488 10.36C76.5968 10.36 77.0355 10.3133 77.4648 10.22C77.9128 10.108 78.3142 9.94 78.6688 9.716C79.0235 9.492 79.3035 9.20267 79.5088 8.848C79.7328 8.47467 79.8448 8.036 79.8448 7.532C79.8448 7.00933 79.7422 6.56133 79.5368 6.188C79.3315 5.81467 79.0515 5.516 78.6968 5.292C78.3608 5.068 77.9688 4.90933 77.5208 4.816C77.0915 4.704 76.6435 4.648 76.1768 4.648H64.2488V10.36H76.1488ZM78.6968 11.62C78.4355 11.7693 78.1462 11.8813 77.8288 11.956C77.5115 12.0307 77.2128 12.1053 76.9328 12.18C77.9782 13.412 79.0235 14.6253 80.0688 15.82C81.1328 17.0147 82.1968 18.228 83.2608 19.46H80.9928L74.5248 12.04H64.2488V19.46H62.5128V2.94H76.1768C76.9422 2.94 77.6515 3.024 78.3048 3.192C78.9768 3.36 79.5462 3.63067 80.0128 4.004C80.4982 4.37733 80.8715 4.85333 81.1328 5.432C81.4128 6.01067 81.5528 6.71067 81.5528 7.532C81.5528 8.55867 81.3195 9.408 80.8528 10.08C80.3862 10.7333 79.6768 11.2467 78.7248 11.62H78.6968ZM83.1208 7.532C83.1208 6.468 82.9528 5.55333 82.6168 4.788C82.2808 4.004 81.8048 3.36 81.1888 2.856C80.5728 2.352 79.8355 1.97867 78.9768 1.736C78.1368 1.49333 77.2035 1.372 76.1768 1.372H61.0008V21.028H65.7888V13.58H73.7968L80.2368 21.028H86.6768L79.6208 12.936C81.9542 11.9093 83.1208 10.108 83.1208 7.532ZM60.3008 21.728V0.672H76.1768C76.9048 0.672 77.6048 0.728 78.2768 0.839999C78.9488 0.933332 79.6208 1.13867 80.2928 1.456C80.9835 1.77333 81.6928 2.23067 82.4208 2.828C83.1675 3.42533 83.9608 4.21867 84.8008 5.208C85.3422 5.74933 85.7622 6.47733 86.0608 7.392C86.3782 8.288 86.5368 9.268 86.5368 10.332C86.5368 11.564 86.2662 12.656 85.7248 13.608C85.2022 14.56 84.4368 15.3347 83.4288 15.932C84.0075 16.604 84.6142 17.304 85.2488 18.032C85.8835 18.76 86.5182 19.4973 87.1528 20.244C87.7875 20.972 88.4128 21.6907 89.0288 22.4C89.6635 23.128 90.2608 23.8093 90.8208 24.444H82.7568L79.9288 21.728L75.8408 16.996H69.2048V24.444H63.1848L60.3008 21.728ZM110.597 10.36V12.04H96.3445V17.752H113.509V19.46H94.6085V2.94H113.481V4.648H96.3445V10.36H110.597ZM115.049 6.216V1.372H93.0405V21.028H115.077V16.184H97.8845V13.58H112.137V8.82H97.8845V6.216H115.049ZM92.3405 21.728V0.672H115.749L118.465 3.556V9.632H114.181L115.553 11.004V15.484L118.493 18.368V24.444H95.2245L92.3405 21.728ZM141.903 13.384L135.995 5.012L129.947 13.384H141.903ZM138.879 11.872H132.943L135.939 7.672L138.879 11.872ZM146.075 19.46L143.051 15.12H128.743C128.22 15.8293 127.707 16.5573 127.203 17.304C126.718 18.032 126.214 18.7507 125.691 19.46H123.451C125.43 16.6787 127.399 13.9253 129.359 11.2C131.338 8.47467 133.307 5.72133 135.267 2.94H136.611L148.175 19.46H146.075ZM134.511 1.372L120.511 21.028H126.447L129.527 16.688H142.183L145.235 21.028H151.171L137.451 1.372H134.511ZM140.587 3.556L155.147 24.444H147.699L144.871 21.728L143.723 20.104H132.663C132.439 20.44 132.187 20.7947 131.907 21.168C131.646 21.5413 131.375 21.9147 131.095 22.288C130.834 22.68 130.572 23.0533 130.311 23.408C130.05 23.7813 129.807 24.1267 129.583 24.444H122.107L119.139 21.728L134.147 0.672H137.815L140.587 3.556ZM158.189 2.94H159.645L169.305 17.276C170.892 14.8493 172.488 12.4507 174.093 10.08C175.717 7.70933 177.351 5.32933 178.993 2.94H180.449V19.46H178.713V6.468L170.005 19.46H168.633L159.925 6.496V19.46H158.189V2.94ZM161.465 11.592L167.765 21.028H170.845L177.173 11.564V21.028H181.989V1.372H178.125L169.277 14.476L160.485 1.372H156.649V21.028H161.465V11.592ZM163.593 3.556L169.669 12.656L177.789 0.672H182.689L185.405 3.556V24.444H179.357L176.473 21.728V20.692L173.953 24.444H170.257L167.429 21.728L164.881 17.92V24.444H158.833L155.949 21.728V0.672H160.821L163.593 3.556Z" fill="white"/>
</svg>
